<svg width="24" height="24" viewBox="0 0 24 24" fill="none" xmlns="http://www.w3.org/2000/svg">
<g clip-path="url(#clip0_589_3511)">
<path d="M2.33924 14.0269C2.7034 12.8553 3.52435 11.6383 5.03332 11.1094C4.38985 7.56257 7.29182 4.6606 10.8387 5.30407C11.3669 3.79581 12.5845 2.97416 13.7555 2.60929C14.2971 2.441 14.5679 2.35685 14.925 2.53292C15.2833 2.70885 15.4013 3.04378 15.6364 3.71096L19.0298 13.3368C19.1896 13.7922 19.2702 14.0199 19.3791 14.1966C19.4861 14.3722 19.8643 14.7691 20.6183 15.5605L20.6434 15.5868C21.9742 16.9812 22.2606 19.0241 20.5069 20.7777C18.7533 22.5313 16.7105 22.2435 15.3161 20.9142L15.2898 20.8891C14.4984 20.1351 14.1014 19.7569 13.9259 19.6499C13.7484 19.5417 13.5214 19.4603 13.0668 19.2998L3.43334 15.9057C2.76853 15.671 2.43699 15.5539 2.26146 15.1965C2.08625 14.8412 2.17258 14.5633 2.33924 14.0269Z" stroke="url(#paint0_linear_589_3511)" stroke-width="1.5" stroke-linecap="round" stroke-linejoin="round"/>
<path d="M13.9259 19.6499L19.3791 14.1966M5.03336 11.1095L16.264 17.9495M10.8386 5.30428L17.6782 16.5353M9.19295 17.9495C10.9841 18.0436 11.9483 17.0549 11.8543 15.2638C13.6454 15.3578 15.1364 13.9982 15.0424 12.2071C16.8335 12.3011 17.7723 11.2554 17.6782 9.46426" stroke="url(#paint1_linear_589_3511)" stroke-width="1.5" stroke-linejoin="round"/>
</g>
<defs>
<linearGradient id="paint0_linear_589_3511" x1="-15.8993" y1="1.07836" x2="26.3386" y2="-10.346" gradientUnits="userSpaceOnUse">
<stop stop-color="#3377FF"/>
<stop offset="1" stop-color="#46E2A8"/>
</linearGradient>
<linearGradient id="paint1_linear_589_3511" x1="-6.51996" y1="4.88828" x2="21.4675" y2="-2.12723" gradientUnits="userSpaceOnUse">
<stop stop-color="#3377FF"/>
<stop offset="1" stop-color="#46E2A8"/>
</linearGradient>
<clipPath id="clip0_589_3511">
<rect width="24" height="24" fill="white"/>
</clipPath>
</defs>
</svg>
